<?xml version="1.0" encoding="UTF-8" standalone="no"?>
<svg
   viewBox="0 0 448 512"
   version="1.1"
   id="svg4"
   sodipodi:docname="chevron-up.svg"
   inkscape:version="1.1.1 (3bf5ae0d25, 2021-09-20)"
   xmlns:inkscape="http://www.inkscape.org/namespaces/inkscape"
   xmlns:sodipodi="http://sodipodi.sourceforge.net/DTD/sodipodi-0.dtd"
   xmlns="http://www.w3.org/2000/svg"
   xmlns:svg="http://www.w3.org/2000/svg">
  <defs
     id="defs8" />
  <sodipodi:namedview
     id="namedview6"
     pagecolor="#ffffff"
     bordercolor="#666666"
     borderopacity="1.0"
     inkscape:pageshadow="2"
     inkscape:pageopacity="0.0"
     inkscape:pagecheckerboard="0"
     showgrid="false"
     inkscape:zoom="1.5859375"
     inkscape:cx="224.15764"
     inkscape:cy="256.31527"
     inkscape:window-width="1920"
     inkscape:window-height="1001"
     inkscape:window-x="-9"
     inkscape:window-y="-9"
     inkscape:window-maximized="1"
     inkscape:current-layer="svg4" />
  <!--! Font Awesome Free 6.0.0 by @fontawesome - https://fontawesome.com License - https://fontawesome.com/license/free (Icons: CC BY 4.0, Fonts: SIL OFL 1.1, Code: MIT License) Copyright 2022 Fonticons, Inc. -->
  <path
     d="M416 352c-8.188 0-16.38-3.125-22.62-9.375L224 173.3l-169.4 169.4c-12.5 12.5-32.75 12.5-45.25 0s-12.5-32.75 0-45.25l192-192c12.5-12.5 32.75-12.5 45.25 0l192 192c12.5 12.5 12.5 32.75 0 45.25C432.4 348.9 424.2 352 416 352z"
     id="path2" />
  <path
     style="fill:#b3b3b3;stroke-width:0.630542"
     d="M 25.07202,350.88765 C 16.203895,348.96098 7.9396281,342.4061 3.7881553,334.00617 -0.73243864,324.85937 -0.70744143,315.31331 3.8619821,305.81281 6.0885735,301.18339 8.230994,298.99 105.53131,201.72442 c 86.10955,-86.07881 99.90734,-99.62405 103.22941,-101.33993 9.79684,-5.060176 19.52723,-5.165666 29.79158,-0.32298 3.1302,1.47681 15.8961,13.98875 102.44684,100.40882 61.02504,60.93291 99.82138,100.13376 101.35376,102.4105 3.38364,5.02731 5.01656,10.59968 5.01656,17.11917 0,16.05354 -11.35617,28.97539 -27.53724,31.3338 -4.64337,0.67678 -5.63266,0.61932 -10.64626,-0.61839 -3.03996,-0.75048 -7.11298,-2.28723 -9.05116,-3.41502 -2.61597,-1.52218 -25.7833,-24.27036 -89.91351,-88.28677 l -86.38954,-86.23626 -86.37893,86.38302 c -94.327921,94.33238 -89.047797,89.42803 -98.739512,91.71256 -4.865192,1.14683 -8.412749,1.15065 -13.641288,0.0147 z"
     id="path84" />
</svg>
